<mxfile host="65bd71144e">
    <diagram id="C5RBs43oDa-KdzZeNtuy" name="Page-1">
        <mxGraphModel dx="801" dy="389" grid="1" gridSize="10" guides="1" tooltips="1" connect="1" arrows="1" fold="1" page="1" pageScale="1" pageWidth="827" pageHeight="1169" math="0" shadow="0">
            <root>
                <mxCell id="WIyWlLk6GJQsqaUBKTNV-0"/>
                <mxCell id="WIyWlLk6GJQsqaUBKTNV-1" parent="WIyWlLk6GJQsqaUBKTNV-0"/>
                <mxCell id="SIzlcMjJbdeO6m4xiYEN-33" style="edgeStyle=orthogonalEdgeStyle;rounded=0;orthogonalLoop=1;jettySize=auto;html=1;entryX=0.5;entryY=1;entryDx=0;entryDy=0;" parent="WIyWlLk6GJQsqaUBKTNV-1" source="SIzlcMjJbdeO6m4xiYEN-0" target="SIzlcMjJbdeO6m4xiYEN-25" edge="1">
                    <mxGeometry relative="1" as="geometry"/>
                </mxCell>
                <mxCell id="PyeMtgR632jhJ3Vh2xLb-14" value="Start bouton" style="edgeLabel;html=1;align=center;verticalAlign=middle;resizable=0;points=[];" parent="SIzlcMjJbdeO6m4xiYEN-33" connectable="0" vertex="1">
                    <mxGeometry x="0.0834" y="2" relative="1" as="geometry">
                        <mxPoint as="offset"/>
                    </mxGeometry>
                </mxCell>
                <mxCell id="SIzlcMjJbdeO6m4xiYEN-0" value="Page d'accueil" style="rounded=1;whiteSpace=wrap;html=1;" parent="WIyWlLk6GJQsqaUBKTNV-1" vertex="1">
                    <mxGeometry x="280" y="410" width="120" height="60" as="geometry"/>
                </mxCell>
                <mxCell id="SIzlcMjJbdeO6m4xiYEN-17" style="edgeStyle=orthogonalEdgeStyle;rounded=0;orthogonalLoop=1;jettySize=auto;html=1;entryX=0;entryY=0.917;entryDx=0;entryDy=0;entryPerimeter=0;exitX=0.987;exitY=0.554;exitDx=0;exitDy=0;exitPerimeter=0;" parent="WIyWlLk6GJQsqaUBKTNV-1" source="SIzlcMjJbdeO6m4xiYEN-7" target="SIzlcMjJbdeO6m4xiYEN-15" edge="1">
                    <mxGeometry relative="1" as="geometry">
                        <mxPoint x="470" y="160" as="targetPoint"/>
                        <Array as="points">
                            <mxPoint x="208" y="172"/>
                            <mxPoint x="345" y="172"/>
                            <mxPoint x="345" y="160"/>
                        </Array>
                        <mxPoint x="230" y="180" as="sourcePoint"/>
                    </mxGeometry>
                </mxCell>
                <mxCell id="PyeMtgR632jhJ3Vh2xLb-4" style="edgeStyle=orthogonalEdgeStyle;rounded=0;orthogonalLoop=1;jettySize=auto;html=1;" parent="WIyWlLk6GJQsqaUBKTNV-1" source="SIzlcMjJbdeO6m4xiYEN-21" target="SIzlcMjJbdeO6m4xiYEN-19" edge="1">
                    <mxGeometry relative="1" as="geometry"/>
                </mxCell>
                <mxCell id="SIzlcMjJbdeO6m4xiYEN-25" value="Niveau 1" style="rounded=1;whiteSpace=wrap;html=1;" parent="WIyWlLk6GJQsqaUBKTNV-1" vertex="1">
                    <mxGeometry x="280" y="280" width="120" height="60" as="geometry"/>
                </mxCell>
                <mxCell id="SIzlcMjJbdeO6m4xiYEN-32" style="edgeStyle=orthogonalEdgeStyle;rounded=0;orthogonalLoop=1;jettySize=auto;html=1;" parent="WIyWlLk6GJQsqaUBKTNV-1" source="SIzlcMjJbdeO6m4xiYEN-30" target="SIzlcMjJbdeO6m4xiYEN-25" edge="1">
                    <mxGeometry relative="1" as="geometry"/>
                </mxCell>
                <mxCell id="PyeMtgR632jhJ3Vh2xLb-13" style="edgeStyle=orthogonalEdgeStyle;rounded=0;orthogonalLoop=1;jettySize=auto;html=1;entryX=0;entryY=0.75;entryDx=0;entryDy=0;" parent="WIyWlLk6GJQsqaUBKTNV-1" source="PyeMtgR632jhJ3Vh2xLb-8" target="SIzlcMjJbdeO6m4xiYEN-25" edge="1">
                    <mxGeometry relative="1" as="geometry"/>
                </mxCell>
                <mxCell id="PyeMtgR632jhJ3Vh2xLb-15" value="" style="group" parent="WIyWlLk6GJQsqaUBKTNV-1" connectable="0" vertex="1">
                    <mxGeometry x="80" y="370" width="130" height="190" as="geometry"/>
                </mxCell>
                <mxCell id="SIzlcMjJbdeO6m4xiYEN-30" value="&lt;b&gt;&amp;lt;&amp;lt;&amp;lt;Game&amp;gt;&amp;gt;&amp;gt;&lt;/b&gt;&lt;div&gt;&lt;b&gt;Setting&lt;/b&gt;&lt;/div&gt;" style="rounded=0;whiteSpace=wrap;html=1;" parent="PyeMtgR632jhJ3Vh2xLb-15" vertex="1">
                    <mxGeometry width="130" height="38.18181818181818" as="geometry"/>
                </mxCell>
                <mxCell id="PyeMtgR632jhJ3Vh2xLb-1" value="&lt;ul style=&quot;padding-left: 15px;&quot;&gt;&lt;li&gt;x: int&lt;/li&gt;&lt;li&gt;y:int&lt;/li&gt;&lt;li&gt;Life :int&lt;/li&gt;&lt;li&gt;deployed_limit: int&lt;/li&gt;&lt;li&gt;place_available :list&lt;/li&gt;&lt;li&gt;base: x,y&lt;/li&gt;&lt;li&gt;chemin: list&lt;/li&gt;&lt;/ul&gt;" style="rounded=0;whiteSpace=wrap;html=1;align=left;" parent="PyeMtgR632jhJ3Vh2xLb-15" vertex="1">
                    <mxGeometry y="38.18" width="130" height="151.82" as="geometry"/>
                </mxCell>
                <mxCell id="PyeMtgR632jhJ3Vh2xLb-16" value="" style="group" parent="WIyWlLk6GJQsqaUBKTNV-1" connectable="0" vertex="1">
                    <mxGeometry x="80" y="570" width="130" height="270" as="geometry"/>
                </mxCell>
                <mxCell id="PyeMtgR632jhJ3Vh2xLb-7" value="&lt;b&gt;&amp;lt;&amp;lt;&amp;lt;Abstraction&amp;gt;&amp;gt;&amp;gt;&lt;/b&gt;&lt;div&gt;&lt;b&gt;Monstre&lt;/b&gt;&lt;/div&gt;" style="rounded=0;whiteSpace=wrap;html=1;" parent="PyeMtgR632jhJ3Vh2xLb-16" vertex="1">
                    <mxGeometry width="130" height="40" as="geometry"/>
                </mxCell>
                <mxCell id="PyeMtgR632jhJ3Vh2xLb-8" value="&lt;ul style=&quot;padding-left: 15px;&quot;&gt;&lt;li&gt;x:int&lt;/li&gt;&lt;li&gt;y:int&lt;/li&gt;&lt;li&gt;animation_count:int&lt;/li&gt;&lt;li&gt;velocity:int&lt;/li&gt;&lt;li&gt;destination: x , y&lt;/li&gt;&lt;li&gt;life :int&lt;/li&gt;&lt;/ul&gt;" style="rounded=0;whiteSpace=wrap;html=1;align=left;" parent="PyeMtgR632jhJ3Vh2xLb-16" vertex="1">
                    <mxGeometry y="40" width="130" height="130" as="geometry"/>
                </mxCell>
                <mxCell id="PyeMtgR632jhJ3Vh2xLb-10" value="&lt;ul style=&quot;padding-left: 15px;&quot;&gt;&lt;li&gt;draw(): None&lt;/li&gt;&lt;li&gt;move(): None&lt;/li&gt;&lt;li&gt;remove() : None&lt;/li&gt;&lt;li&gt;lost_life(cible) : None&lt;/li&gt;&lt;/ul&gt;" style="rounded=0;whiteSpace=wrap;html=1;align=left;" parent="PyeMtgR632jhJ3Vh2xLb-16" vertex="1">
                    <mxGeometry y="170" width="130" height="90" as="geometry"/>
                </mxCell>
                <mxCell id="PyeMtgR632jhJ3Vh2xLb-17" value="" style="group" parent="WIyWlLk6GJQsqaUBKTNV-1" connectable="0" vertex="1">
                    <mxGeometry x="480" y="240" width="130" height="180" as="geometry"/>
                </mxCell>
                <mxCell id="SIzlcMjJbdeO6m4xiYEN-20" value="&lt;ul style=&quot;padding-left: 15px;&quot;&gt;&lt;li&gt;image : list&lt;/li&gt;&lt;li&gt;x :int&lt;/li&gt;&lt;li&gt;y: int&lt;/li&gt;&lt;li&gt;target : tuple&lt;/li&gt;&lt;li&gt;velocity : int&lt;/li&gt;&lt;li&gt;img = list&lt;/li&gt;&lt;/ul&gt;" style="rounded=0;whiteSpace=wrap;labelPosition=center;verticalLabelPosition=middle;align=left;verticalAlign=middle;spacingRight=0;html=1;spacingLeft=0;" parent="PyeMtgR632jhJ3Vh2xLb-17" vertex="1">
                    <mxGeometry y="30" width="130" height="90" as="geometry"/>
                </mxCell>
                <mxCell id="SIzlcMjJbdeO6m4xiYEN-21" value="&lt;b&gt;Projectile&lt;/b&gt;" style="rounded=0;whiteSpace=wrap;labelPosition=center;verticalLabelPosition=middle;align=center;verticalAlign=middle;spacingRight=0;html=1;spacingLeft=0;" parent="PyeMtgR632jhJ3Vh2xLb-17" vertex="1">
                    <mxGeometry width="130" height="30" as="geometry"/>
                </mxCell>
                <mxCell id="SIzlcMjJbdeO6m4xiYEN-23" value="&lt;ul style=&quot;padding-left: 15px;&quot;&gt;&lt;li&gt;draw(surface): None&lt;/li&gt;&lt;li&gt;coli(target): bool&lt;/li&gt;&lt;li&gt;move(): None&lt;/li&gt;&lt;/ul&gt;" style="rounded=0;whiteSpace=wrap;labelPosition=center;verticalLabelPosition=middle;align=left;verticalAlign=middle;spacingRight=0;html=1;spacingLeft=0;" parent="PyeMtgR632jhJ3Vh2xLb-17" vertex="1">
                    <mxGeometry y="120" width="130" height="60" as="geometry"/>
                </mxCell>
                <mxCell id="PyeMtgR632jhJ3Vh2xLb-18" value="" style="group" parent="WIyWlLk6GJQsqaUBKTNV-1" connectable="0" vertex="1">
                    <mxGeometry x="480" y="70" width="130" height="155" as="geometry"/>
                </mxCell>
                <mxCell id="SIzlcMjJbdeO6m4xiYEN-14" value="&lt;b&gt;&amp;lt;&amp;lt;&amp;lt;Abstraction&amp;gt;&amp;gt;&amp;gt;&lt;/b&gt;&lt;div&gt;&lt;b&gt;OpÃ©rateur &amp;lt;&amp;lt;Name&amp;gt;&amp;gt;&lt;/b&gt;&lt;/div&gt;" style="rounded=0;whiteSpace=wrap;html=1;" parent="PyeMtgR632jhJ3Vh2xLb-18" vertex="1">
                    <mxGeometry width="130" height="35" as="geometry"/>
                </mxCell>
                <mxCell id="SIzlcMjJbdeO6m4xiYEN-15" value="&lt;ul style=&quot;padding-left: 15px;&quot;&gt;&lt;li&gt;Name: str&lt;/li&gt;&lt;li&gt;Image : list&lt;/li&gt;&lt;li&gt;animation_count:int&lt;/li&gt;&lt;/ul&gt;&lt;div&gt;&lt;/div&gt;" style="rounded=0;whiteSpace=wrap;html=1;align=left;" parent="PyeMtgR632jhJ3Vh2xLb-18" vertex="1">
                    <mxGeometry y="35" width="130" height="60" as="geometry"/>
                </mxCell>
                <mxCell id="SIzlcMjJbdeO6m4xiYEN-19" value="&lt;ul style=&quot;padding-left: 15px;&quot;&gt;&lt;li&gt;range(x,y): bool&lt;/li&gt;&lt;li&gt;press_skill(): bool&lt;/li&gt;&lt;/ul&gt;" style="rounded=0;whiteSpace=wrap;labelPosition=center;verticalLabelPosition=middle;align=left;verticalAlign=middle;spacingRight=0;html=1;spacingLeft=0;" parent="PyeMtgR632jhJ3Vh2xLb-18" vertex="1">
                    <mxGeometry y="95" width="130" height="60" as="geometry"/>
                </mxCell>
                <mxCell id="PyeMtgR632jhJ3Vh2xLb-19" value="" style="group" parent="WIyWlLk6GJQsqaUBKTNV-1" connectable="0" vertex="1">
                    <mxGeometry x="290" y="70" width="120" height="60" as="geometry"/>
                </mxCell>
                <mxCell id="SIzlcMjJbdeO6m4xiYEN-12" value="" style="edgeStyle=orthogonalEdgeStyle;rounded=0;orthogonalLoop=1;jettySize=auto;html=1;" parent="PyeMtgR632jhJ3Vh2xLb-19" source="SIzlcMjJbdeO6m4xiYEN-9" target="SIzlcMjJbdeO6m4xiYEN-11" edge="1">
                    <mxGeometry relative="1" as="geometry"/>
                </mxCell>
                <mxCell id="SIzlcMjJbdeO6m4xiYEN-9" value="&lt;div&gt;&lt;b&gt;Support opÃ©rateur&lt;/b&gt;&lt;/div&gt;" style="rounded=0;whiteSpace=wrap;html=1;" parent="PyeMtgR632jhJ3Vh2xLb-19" vertex="1">
                    <mxGeometry width="120" height="30" as="geometry"/>
                </mxCell>
                <mxCell id="SIzlcMjJbdeO6m4xiYEN-11" value="&lt;ul style=&quot;padding-left: 15px;&quot;&gt;&lt;li&gt;Image: list&lt;/li&gt;&lt;/ul&gt;" style="whiteSpace=wrap;html=1;rounded=0;align=left;" parent="PyeMtgR632jhJ3Vh2xLb-19" vertex="1">
                    <mxGeometry y="30" width="120" height="30" as="geometry"/>
                </mxCell>
                <mxCell id="PyeMtgR632jhJ3Vh2xLb-20" value="" style="group" parent="WIyWlLk6GJQsqaUBKTNV-1" connectable="0" vertex="1">
                    <mxGeometry x="80" y="70" width="130" height="240" as="geometry"/>
                </mxCell>
                <mxCell id="SIzlcMjJbdeO6m4xiYEN-6" value="&lt;div&gt;&lt;b&gt;&amp;lt;&amp;lt;&amp;lt;Abstraction&amp;gt;&amp;gt;&amp;gt;&lt;/b&gt;&lt;/div&gt;&lt;b&gt;OpÃ©rateur&lt;/b&gt;" style="rounded=0;whiteSpace=wrap;html=1;" parent="PyeMtgR632jhJ3Vh2xLb-20" vertex="1">
                    <mxGeometry width="130" height="30" as="geometry"/>
                </mxCell>
                <mxCell id="SIzlcMjJbdeO6m4xiYEN-7" value="&lt;ul style=&quot;padding-left: 15px;&quot;&gt;&lt;li&gt;&lt;span style=&quot;background-color: initial;&quot;&gt;x:int&lt;/span&gt;&lt;br&gt;&lt;/li&gt;&lt;li&gt;y:int&lt;/li&gt;&lt;li&gt;damage:int&lt;/li&gt;&lt;li&gt;cooldown : int&lt;/li&gt;&lt;li&gt;heal : int&lt;/li&gt;&lt;li&gt;cost : int&lt;/li&gt;&lt;li&gt;selection: bool&lt;/li&gt;&lt;li&gt;deployed :bool&lt;/li&gt;&lt;li&gt;coli : bool&lt;/li&gt;&lt;/ul&gt;" style="rounded=0;whiteSpace=wrap;html=1;align=left;" parent="PyeMtgR632jhJ3Vh2xLb-20" vertex="1">
                    <mxGeometry y="30" width="130" height="180" as="geometry"/>
                </mxCell>
                <mxCell id="9QnG4UY_WtkSS59bRqYy-1" value="" style="group" parent="WIyWlLk6GJQsqaUBKTNV-1" connectable="0" vertex="1">
                    <mxGeometry x="280" y="570" width="120" height="60" as="geometry"/>
                </mxCell>
                <mxCell id="9QnG4UY_WtkSS59bRqYy-2" value="" style="edgeStyle=orthogonalEdgeStyle;rounded=0;orthogonalLoop=1;jettySize=auto;html=1;" parent="9QnG4UY_WtkSS59bRqYy-1" source="9QnG4UY_WtkSS59bRqYy-3" target="9QnG4UY_WtkSS59bRqYy-4" edge="1">
                    <mxGeometry relative="1" as="geometry"/>
                </mxCell>
                <mxCell id="9QnG4UY_WtkSS59bRqYy-3" value="&lt;div&gt;&lt;b&gt;Support infected&lt;/b&gt;&lt;/div&gt;" style="rounded=0;whiteSpace=wrap;html=1;" parent="9QnG4UY_WtkSS59bRqYy-1" vertex="1">
                    <mxGeometry width="120" height="30" as="geometry"/>
                </mxCell>
                <mxCell id="9QnG4UY_WtkSS59bRqYy-4" value="&lt;ul style=&quot;padding-left: 15px;&quot;&gt;&lt;li&gt;Image: list&lt;/li&gt;&lt;/ul&gt;" style="whiteSpace=wrap;html=1;rounded=0;align=left;" parent="9QnG4UY_WtkSS59bRqYy-1" vertex="1">
                    <mxGeometry y="30" width="120" height="30" as="geometry"/>
                </mxCell>
                <mxCell id="9QnG4UY_WtkSS59bRqYy-5" style="edgeStyle=orthogonalEdgeStyle;rounded=0;orthogonalLoop=1;jettySize=auto;html=1;entryX=1;entryY=0.75;entryDx=0;entryDy=0;" parent="WIyWlLk6GJQsqaUBKTNV-1" source="9QnG4UY_WtkSS59bRqYy-4" target="PyeMtgR632jhJ3Vh2xLb-8" edge="1">
                    <mxGeometry relative="1" as="geometry"/>
                </mxCell>
                <mxCell id="9QnG4UY_WtkSS59bRqYy-7" value="" style="group" parent="WIyWlLk6GJQsqaUBKTNV-1" connectable="0" vertex="1">
                    <mxGeometry x="270" y="180" width="120" height="60" as="geometry"/>
                </mxCell>
                <mxCell id="9QnG4UY_WtkSS59bRqYy-8" value="" style="edgeStyle=orthogonalEdgeStyle;rounded=0;orthogonalLoop=1;jettySize=auto;html=1;" parent="9QnG4UY_WtkSS59bRqYy-7" source="9QnG4UY_WtkSS59bRqYy-9" target="9QnG4UY_WtkSS59bRqYy-10" edge="1">
                    <mxGeometry relative="1" as="geometry"/>
                </mxCell>
                <mxCell id="9QnG4UY_WtkSS59bRqYy-9" value="&lt;div&gt;&lt;b&gt;Support map&lt;/b&gt;&lt;/div&gt;" style="rounded=0;whiteSpace=wrap;html=1;" parent="9QnG4UY_WtkSS59bRqYy-7" vertex="1">
                    <mxGeometry width="120" height="30" as="geometry"/>
                </mxCell>
                <mxCell id="9QnG4UY_WtkSS59bRqYy-10" value="&lt;ul style=&quot;padding-left: 15px;&quot;&gt;&lt;li&gt;Image: list&lt;br&gt;&lt;/li&gt;&lt;/ul&gt;" style="whiteSpace=wrap;html=1;rounded=0;align=left;" parent="9QnG4UY_WtkSS59bRqYy-7" vertex="1">
                    <mxGeometry y="30" width="120" height="30" as="geometry"/>
                </mxCell>
                <mxCell id="9QnG4UY_WtkSS59bRqYy-11" style="edgeStyle=orthogonalEdgeStyle;rounded=0;orthogonalLoop=1;jettySize=auto;html=1;entryX=0.646;entryY=-0.028;entryDx=0;entryDy=0;entryPerimeter=0;" parent="WIyWlLk6GJQsqaUBKTNV-1" source="9QnG4UY_WtkSS59bRqYy-10" target="SIzlcMjJbdeO6m4xiYEN-25" edge="1">
                    <mxGeometry relative="1" as="geometry"/>
                </mxCell>
                <mxCell id="9QnG4UY_WtkSS59bRqYy-12" value="" style="group" parent="WIyWlLk6GJQsqaUBKTNV-1" connectable="0" vertex="1">
                    <mxGeometry x="650" y="70" width="130" height="155" as="geometry"/>
                </mxCell>
                <mxCell id="9QnG4UY_WtkSS59bRqYy-13" value="&lt;b&gt;&amp;lt;&amp;lt;&amp;lt;Abstraction&amp;gt;&amp;gt;&amp;gt;&lt;/b&gt;&lt;div&gt;&lt;b&gt;OpÃ©rateur skill&lt;/b&gt;&lt;/div&gt;" style="rounded=0;whiteSpace=wrap;html=1;" parent="9QnG4UY_WtkSS59bRqYy-12" vertex="1">
                    <mxGeometry width="130" height="35" as="geometry"/>
                </mxCell>
                <mxCell id="9QnG4UY_WtkSS59bRqYy-14" value="&lt;ul style=&quot;padding-left: 15px;&quot;&gt;&lt;li&gt;Name: str&lt;/li&gt;&lt;li&gt;description: str&lt;/li&gt;&lt;li&gt;cd: int&lt;/li&gt;&lt;li&gt;image: list&lt;/li&gt;&lt;/ul&gt;&lt;div&gt;&lt;/div&gt;" style="rounded=0;whiteSpace=wrap;html=1;align=left;" parent="9QnG4UY_WtkSS59bRqYy-12" vertex="1">
                    <mxGeometry y="35" width="130" height="85" as="geometry"/>
                </mxCell>
                <mxCell id="9QnG4UY_WtkSS59bRqYy-15" value="&lt;ul style=&quot;padding-left: 15px;&quot;&gt;&lt;li&gt;update(): None&lt;/li&gt;&lt;li&gt;skill_ready: bool&lt;/li&gt;&lt;/ul&gt;" style="rounded=0;whiteSpace=wrap;labelPosition=center;verticalLabelPosition=middle;align=left;verticalAlign=middle;spacingRight=0;html=1;spacingLeft=0;" parent="9QnG4UY_WtkSS59bRqYy-12" vertex="1">
                    <mxGeometry y="120" width="130" height="60" as="geometry"/>
                </mxCell>
                <mxCell id="9QnG4UY_WtkSS59bRqYy-16" style="edgeStyle=orthogonalEdgeStyle;rounded=0;orthogonalLoop=1;jettySize=auto;html=1;entryX=1;entryY=0.5;entryDx=0;entryDy=0;" parent="WIyWlLk6GJQsqaUBKTNV-1" source="9QnG4UY_WtkSS59bRqYy-14" target="SIzlcMjJbdeO6m4xiYEN-15" edge="1">
                    <mxGeometry relative="1" as="geometry"/>
                </mxCell>
                <mxCell id="9QnG4UY_WtkSS59bRqYy-19" value="" style="group" parent="WIyWlLk6GJQsqaUBKTNV-1" connectable="0" vertex="1">
                    <mxGeometry x="480" y="442.5" width="130" height="95" as="geometry"/>
                </mxCell>
                <mxCell id="PyeMtgR632jhJ3Vh2xLb-11" value="&lt;ul style=&quot;padding-left: 15px;&quot;&gt;&lt;li&gt;croquis&lt;/li&gt;&lt;/ul&gt;" style="rounded=0;whiteSpace=wrap;html=1;align=left;" parent="9QnG4UY_WtkSS59bRqYy-19" vertex="1">
                    <mxGeometry y="35" width="130" height="60" as="geometry"/>
                </mxCell>
                <mxCell id="9QnG4UY_WtkSS59bRqYy-18" value="&lt;b&gt;&amp;lt;&amp;lt;&amp;lt;Abstraction&amp;gt;&amp;gt;&amp;gt;&lt;/b&gt;&lt;div&gt;&lt;b&gt;croquis&lt;/b&gt;&lt;/div&gt;" style="rounded=0;whiteSpace=wrap;html=1;" parent="9QnG4UY_WtkSS59bRqYy-19" vertex="1">
                    <mxGeometry width="130" height="35" as="geometry"/>
                </mxCell>
                <mxCell id="9QnG4UY_WtkSS59bRqYy-20" style="edgeStyle=orthogonalEdgeStyle;rounded=0;orthogonalLoop=1;jettySize=auto;html=1;" parent="WIyWlLk6GJQsqaUBKTNV-1" source="SIzlcMjJbdeO6m4xiYEN-11" target="SIzlcMjJbdeO6m4xiYEN-15" edge="1">
                    <mxGeometry relative="1" as="geometry"/>
                </mxCell>
                <mxCell id="9QnG4UY_WtkSS59bRqYy-21" style="edgeStyle=orthogonalEdgeStyle;rounded=0;orthogonalLoop=1;jettySize=auto;html=1;entryX=1;entryY=0.5;entryDx=0;entryDy=0;" parent="WIyWlLk6GJQsqaUBKTNV-1" source="SIzlcMjJbdeO6m4xiYEN-19" target="SIzlcMjJbdeO6m4xiYEN-25" edge="1">
                    <mxGeometry relative="1" as="geometry"/>
                </mxCell>
                <mxCell id="SIzlcMjJbdeO6m4xiYEN-8" value="&lt;ul style=&quot;padding-left: 15px;&quot;&gt;&lt;li&gt;draw(surface): None&lt;/li&gt;&lt;li&gt;click(): None&lt;/li&gt;&lt;li&gt;remove(): None&lt;/li&gt;&lt;/ul&gt;" style="rounded=0;whiteSpace=wrap;html=1;align=left;" parent="WIyWlLk6GJQsqaUBKTNV-1" vertex="1">
                    <mxGeometry x="80" y="280" width="130" height="70" as="geometry"/>
                </mxCell>
            </root>
        </mxGraphModel>
    </diagram>
</mxfile>